<?xml version="1.0" encoding="UTF-8"?>
<svg width="798px" height="403px" viewBox="0 0 798 403" version="1.1" xmlns="http://www.w3.org/2000/svg" xmlns:xlink="http://www.w3.org/1999/xlink">
    <!-- Generator: Sketch 50.2 (55047) - http://www.bohemiancoding.com/sketch -->
    <title>HtmlToSvg-7</title>
    <desc>Created with Sketch.</desc>
    <defs></defs>
    <g id="Page-1" stroke="none" stroke-width="1" fill="none" fill-rule="evenodd">
        <g id="HtmlToSvg-7">
            <rect id="Rectangle" stroke="#979797" fill="#1E115C" x="0.5" y="0.5" width="797" height="402" rx="8"></rect>
            <g id="Group-5" transform="translate(148.000000, 135.000000)" fill="#C83939" fill-rule="nonzero">
                <g id="Group" transform="translate(0.701680, 0.985940)">
                    <path d="M7.902512,116.289063 L58.535549,125.377044 C64.285088,126.304389 69.47822,122.038602 69.47822,116.289063 L69.47822,18.361431 C69.47822,13.910175 66.325247,10.015326 61.873991,9.27345 L11.240954,0.185469 C5.491415,-0.741876 0.298283,3.523911 0.298283,9.27345 L0.298283,107.201082 C0.298283,111.652338 3.451256,115.547187 7.902512,116.289063" id="Shape"></path>
                </g>
                <g id="Group" transform="translate(77.598660, 0.985940)">
                    <path d="M10.942671,125.377044 L61.575708,116.289063 C66.026964,115.547187 69.179937,111.652338 69.179937,107.201082 L69.179937,9.27345 C69.179937,3.523911 63.986805,-0.927345 58.237266,0.185469 L7.604229,9.27345 C3.152973,10.015326 0,13.910175 0,18.361431 L0,116.289063 C0,122.038602 5.193132,126.304389 10.942671,125.377044" id="Shape"></path>
                </g>
                <g id="Group" transform="translate(92.436180, 13.968770)">
                    <path d="M58.979142,0 L58.979142,97.927632 C58.979142,102.00795 56.011638,105.346392 52.116789,106.088268 L1.483752,115.176249 L1.85469,117.030939 L52.487727,107.942958 C57.309921,107.015613 60.833832,102.935295 60.833832,97.927632 L60.833832,0 L58.979142,0" id="Shape"></path>
                </g>
            </g>
            <g id="Group" transform="translate(315.190000, 145.682800)" fill="#FFFFFF" fill-rule="nonzero">
                <path d="M30.3202447,27.3338973 C36.831924,29.4812964 40.6419838,34.9548345 40.6419838,41.2580681 C40.6419838,50.1251834 32.883309,56.22038 23.7390836,56.22038 L1.71005471,56.22038 C1.08725174,56.22038 0.810182489,55.8746054 0.810182489,55.3203852 L0.810182489,1.70080194 C0.810182489,1.07750851 1.08729262,0.800398385 1.71005471,0.800398385 L22.5615699,0.800398385 C31.5672403,0.800398385 37.8018094,7.72774282 37.8018094,15.1402343 C37.8018094,20.9591383 34.6152064,25.3234184 30.3202447,27.3326712 L30.3202447,27.3338973 M21.3836475,25.672054 C35.5849284,25.672054 36.0005936,6.06753436 21.6607576,6.06753436 L6.28196307,6.06753436 L6.28196307,25.672054 L21.3836475,25.672054 M22.7005337,50.9569225 C39.2568419,50.9569225 39.3263238,30.7981826 22.5619786,30.7981826 L6.28237179,30.7981826 L6.28237179,50.9569225 L22.700125,50.9569225 L22.7005337,50.9569225 M64.8184118,56.6352278 C74.4473756,56.6352278 82.4831606,48.9464436 82.4831606,39.1094428 C82.4831606,29.0648138 74.4473756,21.3752122 64.8184118,21.3752122 C55.0508929,21.3752122 47.015108,29.0648138 47.015108,39.1094428 C47.015108,48.9464436 55.0508929,56.6352278 64.8184118,56.6352278 M64.8184118,51.7183622 C57.5444754,51.7183622 52.1412366,45.7609033 52.1412366,39.1106689 C52.1412366,32.3218796 57.5444754,26.3644206 64.8184118,26.3644206 C71.9537932,26.3644206 77.3570319,32.3218796 77.3570319,39.1106689 C77.3570319,45.7609033 71.9537932,51.7183622 64.8184118,51.7183622 M105.828667,56.6352278 C115.457631,56.6352278 123.493416,48.9464436 123.493416,39.1094428 C123.493416,29.0648138 115.457631,21.3752122 105.828667,21.3752122 C96.061148,21.3752122 88.0253631,29.0648138 88.0253631,39.1094428 C88.0253631,48.9464436 96.061148,56.6352278 105.828667,56.6352278 M105.828667,51.7183622 C98.5547304,51.7183622 93.1514917,45.7609033 93.1514917,39.1106689 C93.1514917,32.3218796 98.5547304,26.3644206 105.828667,26.3644206 C112.964048,26.3644206 118.367287,32.3218796 118.367287,39.1106689 C118.367287,45.7609033 112.964048,51.7183622 105.828667,51.7183622 M159.931762,54.6962743 C160.555464,55.3898671 160.277537,56.2195626 159.377133,56.2195626 L155.359037,56.2195626 C154.874298,56.2195626 154.527706,56.0119343 154.181523,55.6661597 L136.031627,39.0403696 L136.031627,55.3199764 C136.031627,55.8741967 135.754517,56.2199713 135.130815,56.2199713 L131.73642,56.2199713 C131.113535,56.2199713 130.836425,55.8741967 130.836425,55.3199764 L130.836425,5.78756322 C130.836425,3.57068221 130.559315,2.73935183 130.421169,1.90843017 C130.352504,1.28472803 130.560133,0.799989668 131.04528,0.799989668 L134.231637,0.799989668 C135.340078,0.799989668 136.032853,1.49276498 136.032853,2.53254103 L136.032853,37.7921479 L151.895977,22.4141708 C152.242569,21.9976882 152.519271,21.928615 152.934936,21.928615 L156.953033,21.928615 C157.784363,21.928615 158.130546,22.8290185 157.576326,23.452312 L141.781866,38.4154413 L159.931762,54.6962743 M166.582814,46.9384169 L168.521768,44.6524627 C169.144652,44.0287606 169.768354,44.0982425 170.322166,44.5139077 C171.638643,45.6223482 177.041882,51.510734 184.731075,51.510734 C193.8753,51.510734 197.892989,46.5231605 197.892989,41.6046601 C197.892989,34.5387606 189.856386,32.6684716 182.582858,30.0359254 C174.339445,26.9186408 167.273137,23.1776541 167.273137,14.8647591 C167.273137,7.93741464 172.330193,0.317294891 184.730258,0.317294891 C193.250781,0.317294891 199.416277,5.4434235 201.078938,6.89845602 C201.633158,7.38319439 201.841195,8.00689653 201.426347,8.56111678 L199.625131,10.9161441 C199.209466,11.4703644 198.655246,11.6089194 198.031544,11.1932543 C196.646402,10.1542956 191.658828,5.51290539 184.800966,5.51290539 C177.041473,5.51290539 172.677193,9.60007539 172.677193,14.8643504 C172.677193,20.9603644 178.843098,23.1077635 186.948365,26.0174199 C194.360856,28.7885211 203.297045,32.5290991 203.297045,41.6733245 C203.297045,49.7091095 195.816297,56.6356365 184.801374,56.6356365 C174.687263,56.6356365 168.452694,50.0552928 166.859515,48.4621139 C166.374777,47.9773755 165.959112,47.5617104 166.582405,46.9388256 L166.582814,46.9384169 M259.34032,21.9298411 C259.825058,21.9298411 260.033095,22.2069513 259.825058,22.7611715 L247.35592,55.5970866 C247.217365,56.0127518 246.871182,56.22038 246.455516,56.22038 L245.762741,56.22038 C245.278003,56.22038 245.000893,56.0127518 244.792856,55.5970866 L234.055451,30.9355115 L223.318047,55.5970866 C223.110419,56.0127518 222.833309,56.22038 222.417643,56.22038 L221.655386,56.22038 C221.239721,56.22038 220.962611,56.0127518 220.754983,55.5970866 L208.285844,22.7611715 C208.077807,22.2069513 208.285844,21.9298411 208.770583,21.9298411 L212.926826,21.9298411 C213.342491,21.9298411 213.619601,22.1374694 213.758156,22.483244 L222.694345,47.7689299 L232.461864,22.8302447 C232.669901,22.4840614 232.947011,22.2069513 233.431749,22.2069513 L234.678745,22.2069513 C235.232965,22.2069513 235.440593,22.4840614 235.64863,22.8302447 L245.485631,47.7689299 L254.352746,22.483244 C254.491301,22.1374694 254.69893,21.9298411 255.184077,21.9298411 L259.34032,21.9298411 M294.254152,54.9043113 C293.561377,48.1845951 293.491486,41.5335433 293.768596,34.8142358 C294.11478,26.7784509 289.819981,21.5137672 281.368531,21.5137672 C275.895811,21.5137672 270.354834,23.176428 266.960031,25.046717 C266.405811,25.3238271 266.1287,25.8780474 266.405811,26.3627857 L267.583733,28.9953319 C267.791361,29.5495522 268.207026,29.6881072 268.899802,29.3415152 C273.679747,27.0563785 277.351252,26.1555662 281.161312,26.1555662 C286.079812,26.1555662 288.919986,28.6495573 288.712358,34.0527961 C274.095412,36.5467872 264.812632,38.9712964 264.812632,47.4227466 C264.812632,53.0340223 268.968875,56.566972 275.965701,56.566972 C281.92316,56.566972 285.45611,54.696683 289.197097,52.341247 C289.404725,54.4195729 289.82039,56.2207887 290.721202,56.2207887 L293.63045,56.2207887 C294.254152,56.2207887 294.392707,55.6673859 294.254152,54.90472 L294.254152,54.9043113 M276.865696,52.3404295 C273.263264,52.3404295 270.14598,50.9548789 270.14598,47.352856 C270.14598,41.8801353 279.220723,40.4945847 288.642059,38.5552225 C288.503504,41.7415803 288.503504,45.5520489 288.642059,48.3922233 C286.078995,50.1239572 281.506678,52.3408382 276.865287,52.3408382 L276.865696,52.3404295 M318.708508,21.5840666 C326.882848,21.5840666 334.640705,28.3037827 334.640705,38.7640769 C334.640705,48.6697421 328.544691,56.6352278 318.70769,56.6352278 C314.481965,56.6352278 310.671905,55.043275 307.831731,52.9649491 L307.831731,74.439349 C307.831731,75.8248996 306.44618,76.5867481 305.33774,76.5867481 L303.398378,76.5867481 C302.981895,76.5867481 302.63612,76.2413822 302.63612,75.7558264 L302.63612,26.987714 C302.63612,25.2555714 302.35901,24.2166127 302.220455,23.0390991 C302.151791,22.4162144 302.359828,21.9306586 302.844566,21.9306586 L306.031332,21.9306586 C307.139773,21.9306586 307.832548,22.6234339 307.832548,23.6623925 L307.832548,24.8399062 C310.326539,23.1081722 313.790007,21.5840666 318.708508,21.5840666 M317.876769,51.7874354 C324.665558,51.7874354 329.514985,46.5211169 329.514985,38.7632595 C329.514985,30.3118094 323.280416,26.5017495 317.876769,26.5017495 C313.997635,26.5017495 310.672314,27.8178182 307.83214,29.827071 L307.83214,48.392632 C310.464686,50.1942566 313.720525,51.7874354 317.876769,51.7874354" id="Shape"></path>
            </g>
            <g id="Group" transform="translate(315.485000, 231.366340)" fill="#C83939" fill-rule="nonzero">
                <path d="M12.2794068,9.51829985 C13.4913481,10.2043812 14.4746228,11.1589647 15.2292309,12.382376 C15.9838226,13.6057873 16.3611918,14.9720848 16.3611918,16.4812683 C16.3611918,17.92186 16.0066975,19.253943 15.2978227,20.4771914 C14.5889643,21.7006027 13.622862,22.6667539 12.3995321,23.375482 C11.1762185,24.084373 9.8442496,24.4387371 8.40360903,24.4389 L3.36153811,24.4389 L3.36153811,10.4101568 L0.514577332,10.4101568 L1.64648128,8.48942216 L3.36144035,8.48942216 L3.36144035,1.11483745 L9.56973558,1.11483745 C10.8502851,1.11483745 11.9421825,1.56645203 12.8454117,2.46963231 C13.7486571,3.37289405 14.2002717,4.47622892 14.2002717,5.77963692 C14.2002717,7.35757523 13.5600051,8.60379621 12.2794556,9.51846277 L12.2794068,9.51829985 M5.24800939,8.52363662 L9.56978446,8.52363662 C10.3929844,8.52363662 11.0561258,8.24356682 11.5591924,7.68326431 C12.062259,7.12312472 12.3138004,6.48852795 12.3138004,5.77963692 C12.3138004,4.95637185 12.0451192,4.28756062 11.5077566,3.77304031 C10.9703778,3.25852 10.3243762,3.00125985 9.56975188,3.00142277 L5.2479768,3.00142269 L5.2479768,8.52379954 L5.24800939,8.52363662 M5.24800939,10.4101568 L5.24800939,22.5523798 L8.40356015,22.5523798 C10.1414429,22.5523798 11.5877696,21.9464581 12.7425402,20.7344515 C13.8973108,19.522608 14.4747206,18.1048259 14.4747694,16.4812683 C14.4747694,15.315044 14.1946508,14.2745986 13.6344134,13.359932 C13.0741761,12.4452654 12.3253193,11.7249696 11.3878268,11.1990445 C10.4503343,10.6731193 9.45562221,10.4101568 8.4036742,10.4101568 L5.24812343,10.4101568 L5.24800939,10.4101568 M30.4761229,0.63378214 C32.6941975,0.63378214 34.7293062,1.17686338 36.5816119,2.26304214 C38.4337546,3.34926978 39.9030213,4.81267111 40.9892489,6.65340906 C42.0754766,8.49414701 42.6185089,10.5235533 42.6185089,12.7416278 C42.618346,14.9597024 42.0753136,16.9948111 40.9892489,18.8471168 C39.9030213,20.6994224 38.4339175,22.1685262 36.5816119,23.2547538 C34.7293062,24.3409815 32.6940346,24.8840138 30.4761229,24.8840138 C28.2580484,24.8840138 26.2286421,24.3409815 24.3879042,23.2547538 C22.5470033,22.1685262 21.083602,20.6994224 19.9975372,18.8471168 C18.9113096,16.9948111 18.3682772,14.9597024 18.3682772,12.7416278 C18.3682772,11.1180702 18.6768591,9.5631045 19.2943486,8.0767306 C19.9116752,6.59051963 20.7864249,5.28140922 21.9182719,4.14939937 C23.0501188,3.01755245 24.3535268,2.14866809 25.8284959,1.54264854 C27.3034649,0.936645281 28.8525653,0.633668092 30.4761229,0.633700677 L30.4761229,0.63378214 M30.4761229,2.52046522 C28.6467898,2.52046522 26.9432355,2.97209609 25.3654602,3.87535784 C23.7875219,4.77861958 22.5413009,6.03054296 21.6267972,7.63129091 C20.7121307,9.23203886 20.2547974,10.9355931 20.2546345,12.7419537 C20.2546345,14.5940964 20.7119677,16.3092185 21.6266343,17.8869938 C22.5414638,19.4647692 23.7876848,20.7109902 25.3652972,21.6256568 C26.9430726,22.5403233 28.6466269,22.9976566 30.47596,22.9976566 C32.3282657,22.9976566 34.0432248,22.5403233 35.6210002,21.6256568 C37.1989385,20.7109902 38.4451594,19.4647692 39.3596631,17.8869938 C40.2743296,16.3092185 40.7316629,14.5940964 40.7318259,12.7419537 C40.7318259,10.9354302 40.2744926,9.23187594 39.3596631,7.63112799 C38.4449965,6.03054296 37.1987755,4.77845665 35.6210002,3.87519491 C34.0433877,2.97193317 32.3282657,2.52030229 30.47596,2.52046522 L30.4761229,2.52046522 M56.7332771,0.63378214 C58.9513517,0.63378214 60.9864603,1.17686338 62.8386031,2.26304214 C64.6909088,3.34926978 66.1601755,4.81267111 67.2462402,6.65340906 C68.3324678,8.49414701 68.8756631,10.5235533 68.8755002,12.7416278 C68.8755002,14.9597024 68.3324678,16.9948111 67.2462402,18.8471168 C66.1601755,20.6994224 64.6909088,22.1685262 62.8386031,23.2547538 C60.9864603,24.3409815 58.9511887,24.8840138 56.7331142,24.8840138 C54.5152025,24.8840138 52.4857963,24.3409815 50.6450583,23.2547538 C48.8041574,22.1685262 47.3407561,20.6994224 46.2545285,18.8471168 C45.1684638,16.9948111 44.6254314,14.9597024 44.6252685,12.7416278 C44.6252685,11.1180702 44.9340132,9.5631045 45.5515028,8.0767306 C46.1688294,6.59051963 47.0435791,5.28140922 48.175426,4.14939937 C49.3072729,3.01755245 50.6106809,2.14866809 52.08565,1.54264854 C53.5606191,0.936645281 55.1097195,0.633668092 56.7332771,0.633700677 L56.7332771,0.63378214 M56.7332771,2.52046522 C54.903944,2.52046522 53.2003897,2.97209609 51.6224514,3.87535784 C50.044676,4.77861958 48.798455,6.03054296 47.8837885,7.63129091 C46.9692848,9.23203886 46.5119516,10.9355931 46.5117886,12.7419537 C46.5117886,14.5940964 46.9691219,16.3092185 47.8837885,17.8869938 C48.798455,19.4647692 50.044676,20.7109902 51.6224514,21.6256568 C53.2002268,22.5403233 54.903781,22.9976566 56.7331142,22.9976566 C58.5854199,22.9976566 60.3003789,22.5403233 61.8781543,21.6256568 C63.4560926,20.7109902 64.7023136,19.4647692 65.6168172,17.8869938 C66.5314838,16.3092185 66.9888171,14.5940964 66.9888171,12.7419537 C66.9888171,10.9354302 66.5314838,9.23187594 65.6168172,7.63112799 C64.7021507,6.03054296 63.4559297,4.77845665 61.8781543,3.87519491 C60.3003789,2.97193317 58.5854199,2.52030229 56.7331142,2.52046522 L56.7332771,2.52046522 M85.494278,24.4389 L83.3676049,24.4389 L75.718718,10.3757794 L73.2834631,13.9772586 L73.2834631,24.4389 L71.3969429,24.4389 L71.3969429,1.11441384 L73.2834631,1.11441384 L73.2834631,10.5470146 L79.628942,1.11441384 L81.8927988,1.11441384 L76.8849423,8.59190261 L85.494278,24.4389 M123.464508,19.9113494 C122.366876,21.4205329 120.954796,22.626837 119.228432,23.5300988 C117.501905,24.4331976 115.632655,24.8848285 113.620356,24.8848285 C111.402282,24.8848285 109.372876,24.3417961 107.531975,23.2555685 C105.691237,22.1695037 104.227835,20.7002371 103.141608,18.8479314 C102.055543,16.9957886 101.512511,14.960517 101.512348,12.7424425 C101.512348,11.1188849 101.821092,9.56408205 102.438419,8.07770815 C103.055909,6.59133426 103.930495,5.28222385 105.062342,4.15037692 C106.194352,3.01853 107.49776,2.14948272 108.972729,1.54351205 C110.447535,0.937525082 111.996799,0.6345316 113.620356,0.634564185 C115.632492,0.634564185 117.496203,1.07475765 119.211162,1.955112 C120.926284,2.8355641 122.332498,4.0531101 123.430131,5.60807585 L121.920947,6.67133092 C121.34924,5.87103841 120.617539,5.14504015 119.725682,4.49333615 C118.833988,3.84163215 117.879242,3.34992149 116.861606,3.01836708 C115.844133,2.68681267 114.763608,2.52111692 113.620193,2.52111692 C111.79086,2.52111692 110.087306,2.9727478 108.509531,3.87600954 C106.931755,4.77910836 105.685534,6.03119467 104.770868,7.63194262 C103.856201,9.23252764 103.398868,10.9360819 103.398868,12.7426054 C103.398868,14.5947482 103.856201,16.3097072 104.770868,17.8876455 C105.685534,19.4654209 106.931755,20.7116419 108.509531,21.6263085 C110.087306,22.5408121 111.79086,22.9981454 113.620193,22.9983083 C115.312343,22.9983083 116.884416,22.6209717 118.336412,21.8662985 C119.788572,21.1117882 120.983308,20.0941524 121.920784,18.813554 L123.464508,19.9113494 M137.545876,0.63378214 C139.763951,0.63378214 141.79906,1.17686338 143.651202,2.26304214 C145.503508,3.34926978 146.972775,4.81267111 148.05884,6.65340906 C149.145067,8.49414701 149.688263,10.5235533 149.6881,12.7416278 C149.6881,14.9597024 149.145067,16.9948111 148.05884,18.8471168 C146.972775,20.6994224 145.503508,22.1685262 143.651202,23.2547538 C141.798897,24.3409815 139.763788,24.8840138 137.545714,24.8840138 C135.327802,24.8840138 133.298396,24.3409815 131.457495,23.2547538 C129.616757,22.1685262 128.153356,20.6994224 127.067128,18.8471168 C125.981063,16.9948111 125.438031,14.9597024 125.437868,12.7416278 C125.437868,11.1180702 125.746613,9.5631045 126.364102,8.0767306 C126.981429,6.59051963 127.856016,5.28140922 128.988025,4.14939937 C130.119872,3.01755245 131.42328,2.14866809 132.898249,1.54264854 C134.373056,0.936645281 135.922319,0.633668092 137.545876,0.633700677 L137.545876,0.63378214 M137.545876,2.52046522 C135.716543,2.52046522 134.012989,2.97209609 132.435051,3.87535784 C130.857275,4.77861958 129.611054,6.03054296 128.696388,7.63129091 C127.781884,9.23203886 127.324388,10.9355931 127.324388,12.7419537 C127.324388,14.5940964 127.781721,16.3092185 128.696388,17.8869938 C129.611054,19.4647692 130.857275,20.7109902 132.435051,21.6256568 C134.012826,22.5403233 135.71638,22.9976566 137.545714,22.9976566 C139.398019,22.9976566 141.112978,22.5403233 142.690754,21.6256568 C144.268529,20.7109902 145.51475,19.4647692 146.429417,17.8869938 C147.344083,16.3092185 147.801416,14.5940964 147.801416,12.7419537 C147.801416,10.9354302 147.344083,9.23187594 146.429417,7.63112799 C145.51475,6.03054296 144.268529,4.77845665 142.690754,3.87519491 C141.112978,2.97193317 139.398019,2.52030229 137.545714,2.52046522 L137.545876,2.52046522 M160.818878,10.101412 L169.428377,0.66881123 L169.428377,24.4380854 L167.541694,24.4380854 L167.541694,5.53866937 L160.818878,12.8789744 L154.096063,5.53866937 L154.096063,24.4380854 L152.209542,24.4380854 L152.209542,0.66881123 L160.818878,10.101412 M181.072698,10.101412 L189.683337,0.66881123 L189.683337,24.4380854 L187.796654,24.4380854 L187.796654,5.53866937 L181.072698,12.8789744 L174.350371,5.53866937 L174.350371,24.4380854 L172.463688,24.4380854 L172.463688,0.66881123 L181.072698,10.101412 M202.97484,1.11441384 L204.861523,1.11441384 L204.861523,18.366648 C204.861523,19.4413079 204.586178,20.4475389 204.037118,21.3850151 C203.489686,22.3226542 202.745114,23.0657597 201.80829,23.6144944 C200.871465,24.1633921 199.864583,24.4377595 198.789271,24.4377595 C197.715589,24.4377595 196.708706,24.1633921 195.771882,23.6144944 C194.833428,23.0657597 194.090485,22.3224913 193.541425,21.3850151 C192.993993,20.4475389 192.718648,19.4414708 192.718648,18.366648 L192.718648,1.11441384 L194.605331,1.11446272 L194.605331,18.366648 C194.605331,19.4414708 194.999612,20.407622 195.788174,21.2651015 C196.578365,22.1225811 197.578731,22.5514023 198.789271,22.5512394 C199.887392,22.5512394 200.860061,22.1626609 201.705647,21.385178 C202.551232,20.6076951 202.97484,19.6014641 202.97484,18.3668109 L202.97484,1.1145116 L202.97484,1.11441384 M209.783518,7.83836986 L209.783518,24.4389 L207.896835,24.4389 L207.896835,0.66962586 L217.569751,17.7507877 L217.569751,1.11441384 L219.456434,1.11441384 L219.456434,24.883688 L209.783518,7.83836986 M222.491746,24.4389 L222.491746,1.11441384 L224.378429,1.11441384 L224.378429,24.4389 L222.491746,24.4389 M248.851543,19.9113494 C247.753422,21.4205329 246.340853,22.626837 244.615467,23.5300988 C242.888452,24.4331976 241.01969,24.8848285 239.007554,24.8848285 C236.788502,24.8848285 234.760073,24.3417961 232.91901,23.2555685 C231.077946,22.1695037 229.61487,20.7002371 228.528154,18.8479314 C227.441437,16.9957886 226.898894,14.960517 226.898894,12.7424425 C226.898894,11.1188849 227.208453,9.56408205 227.825943,8.07770815 C228.441803,6.59133426 229.316716,5.28222385 230.449051,4.15037692 C231.581387,3.01853 232.884795,2.14948272 234.359275,1.54351205 C235.833756,0.937525082 237.383182,0.6345316 239.007554,0.634564185 C241.01969,0.634564185 242.883564,1.07475765 244.597545,1.955112 C246.313156,2.8355641 247.719207,4.0531101 248.817329,5.60807585 L247.307005,6.67133092 C246.736764,5.87103841 246.003597,5.14504015 245.112391,4.49333615 C244.221186,3.84163215 243.26644,3.34992149 242.248152,3.01836708 C241.231494,2.68681267 240.149665,2.52111692 239.007554,2.52111692 C237.177895,2.52111692 235.473689,2.9727478 233.896566,3.87600954 C232.317813,4.77910836 231.071429,6.03119467 230.157414,7.63194262 C229.243399,9.23252764 228.785577,10.9360819 228.785577,12.7426054 C228.785577,14.5947482 229.243399,16.3097072 230.157414,17.8876455 C231.071429,19.4654209 232.317813,20.7116419 233.896566,21.6263085 C235.473689,22.5408121 237.177895,22.9981454 239.007554,22.9983083 C240.698726,22.9983083 242.270962,22.6209717 243.722633,21.8662985 C245.175933,21.1117882 246.37018,20.0941524 247.307005,18.813554 L248.851543,19.9113494 M255.147004,15.966748 L263.514883,15.966748 L263.514883,6.70570831 C263.514883,5.88244323 263.316113,5.15074256 262.915315,4.51044338 C262.514517,3.8701442 261.994784,3.37859646 261.354484,3.03563723 C260.714185,2.69251508 260.039672,2.52111692 259.330943,2.52111692 C258.095964,2.52111692 257.090711,2.94407282 256.311925,3.79014754 C255.534768,4.63622226 255.147004,5.60807585 255.147004,6.70570831 L255.147004,15.966748 M255.147004,17.8532682 L255.147004,24.4389 L253.260321,24.4389 L253.260321,17.8532682 L250.824577,17.8532682 L251.956913,15.966748 L253.260321,15.966748 L253.260321,6.70570831 C253.260321,5.63104841 253.534036,4.62481744 254.083097,3.68734123 C254.632158,2.7497021 255.3751,2.00659662 256.311925,1.45781297 C257.250378,0.909029324 258.255632,0.634629355 259.330943,0.634613063 C260.406255,0.63459677 261.411508,0.908996739 262.349962,1.45781297 C263.286787,2.00659662 264.029729,2.74986503 264.57879,3.68734123 C265.127851,4.62481744 265.401566,5.63088549 265.401566,6.70570831 L265.401566,24.4385741 L263.514883,24.4385741 L263.514883,17.8529423 L255.147004,17.8529423 L255.147004,17.8532682 M274.440701,3.00109692 L274.440701,24.4389 L272.554018,24.4389 L272.554018,3.00109692 L267.923661,3.00109692 L267.923661,1.11457677 L279.071058,1.11457677 L279.071058,3.00109692 L274.440701,3.00109692 M281.593152,24.4389 L281.593152,1.11441384 L283.478206,1.11441384 L283.478206,24.4389 L281.593152,24.4389 M298.108961,0.63378214 C300.326384,0.63378214 302.361329,1.17686338 304.213798,2.26304214 C306.066267,3.34926978 307.535859,4.81267111 308.620946,6.65340906 C309.707663,8.49414701 310.250206,10.5235533 310.250206,12.7416278 C310.250206,14.9597024 309.707663,16.9948111 308.620946,18.8471168 C307.535859,20.6994224 306.066267,22.1685262 304.213798,23.2547538 C302.361329,24.3409815 300.326384,24.8840138 298.108961,24.8840138 C295.889909,24.8840138 293.86148,24.3409815 292.020416,23.2547538 C290.179352,22.1685262 288.716277,20.6994224 287.62956,18.8471168 C286.542844,16.9948111 286.0003,14.9597024 286.0003,12.7416278 C286.0003,11.1180702 286.30986,9.5631045 286.927349,8.0767306 C287.54321,6.59051963 288.418122,5.28140922 289.550458,4.14939937 C290.682794,3.01755245 291.986202,2.14866809 293.460682,1.54264854 C294.935162,0.936645281 296.484588,0.633668092 298.108961,0.633700677 L298.108961,0.63378214 M298.108961,2.52046522 C296.279302,2.52046522 294.575096,2.97209609 292.997972,3.87535784 C291.419219,4.77861958 290.172835,6.03054296 289.25882,7.63129091 C288.344806,9.23203886 287.886983,10.9355931 287.886983,12.7419537 C287.886983,14.5940964 288.344806,16.3092185 289.25882,17.8869938 C290.172835,19.4647692 291.419219,20.7109902 292.997972,21.6256568 C294.575096,22.5403233 296.279302,22.9976566 298.108961,22.9976566 C299.9598,22.9976566 301.675411,22.5403233 303.252535,21.6256568 C304.831287,20.7109902 306.077671,19.4647692 306.991686,17.8869938 C307.90733,16.3092185 308.363523,14.5940964 308.363523,12.7419537 C308.363523,10.9354302 307.90733,9.23187594 306.991686,7.63112799 C306.077671,6.03054296 304.831287,4.77845665 303.252535,3.87519491 C301.675411,2.97193317 299.9598,2.52030229 298.108961,2.52046522 M314.658984,7.83836986 L314.658984,24.4389 L312.772301,24.4389 L312.772301,0.66962586 L322.445217,17.7507877 L322.445217,1.11441384 L324.3319,1.11441384 L324.3319,24.883688 L314.658984,7.83836986" id="Shape"></path>
            </g>
        </g>
    </g>
</svg>